<svg width="100" height="97" viewBox="0 0 100 97" fill="none" xmlns="http://www.w3.org/2000/svg">
<rect width="100" height="97" rx="40" fill="#036E64"/>
<path d="M42 16.324C24.5152 16.324 10 28.0936 10 43.02C10 51.88 15.1216 59.6192 22.9344 64.4528C22.4064 67.3464 19.8504 69.8448 17.4184 72.42C17.1695 72.6848 17.0083 73.0199 16.9566 73.3797C16.905 73.7394 16.9655 74.1063 17.1299 74.4305C17.2943 74.7546 17.5546 75.0202 17.8753 75.1911C18.1961 75.362 18.5617 75.4299 18.9224 75.3856C24.6528 74.6696 29.928 71.5832 33.836 68.8368C36.5174 69.425 39.2548 69.7204 42 69.7176C59.4848 69.7176 74 57.9472 74 43.0208C74 28.0944 59.4848 16.324 42 16.324ZM42 19.86C57.9088 19.86 70.464 30.4112 70.464 43.02C70.464 55.6312 57.9088 66.184 42 66.184C40.5026 66.1833 39.0068 66.0871 37.5216 65.896C37.3616 65.8746 37.2024 65.8525 37.044 65.8296C36.8136 65.797 36.5843 65.7624 36.356 65.7256C36.1859 65.6973 36.0168 65.6672 35.8488 65.6352C35.6557 65.6016 35.4635 65.5664 35.272 65.5296C35.0624 65.4869 34.8536 65.4426 34.6456 65.3968C34.4744 65.36 34.304 65.3224 34.1344 65.284C33.7744 65.1997 33.4171 65.1101 33.0624 65.0152C32.4681 65.4404 31.8664 65.8551 31.2576 66.2592L31.2472 66.2672C30.7448 66.6 30.2128 66.9336 29.6784 67.2656C27.9304 68.3512 26.0416 69.4016 24.0688 70.2336C24.9504 69.0256 25.7048 67.696 26.1504 66.2104C26.2155 65.9864 26.2736 65.7589 26.3248 65.528C26.3445 65.4458 26.3629 65.3634 26.38 65.2808C26.4477 64.9378 26.4965 64.5914 26.5264 64.2432C26.5392 64.0968 26.5552 63.9512 26.5608 63.8008C26.5752 63.4776 26.5768 63.1488 26.556 62.8104C26.5503 62.6863 26.5316 62.5633 26.5 62.4432L26.4968 62.4416L26.4784 62.4304C26.054 62.2033 25.6352 61.9659 25.2224 61.7184C25.0747 61.6293 24.928 61.5386 24.7824 61.4464C17.9224 57.184 13.536 50.4664 13.536 43.0208C13.536 30.4112 26.0912 19.86 42 19.86ZM40.6888 21.244C40.4672 21.2464 40.2448 21.2568 40.0216 21.2648C40.052 21.3408 40.056 21.4352 39.992 21.5704C40.864 21.7544 41.7104 21.2096 42.6 21.4552C43.392 21.6248 44.3256 21.8632 44.8328 22.4568C45.148 22.6056 43.6784 21.9792 43.9872 22.6536C44.3408 23.3744 45.3208 23.2904 45.9488 22.9304C46.7832 22.8144 46.0848 23.6584 46.6512 23.872C46.1016 23.9264 45.2592 24.3352 44.5232 24.376C43.8576 24.3616 43.9824 24.9592 44.5768 24.9256C45.248 25.084 46.2136 24.6072 46.4504 25.4736C47.0104 25.6112 46.9728 26.2504 46.6 26.424C46.8576 26.776 47.3512 27.0752 47.0856 27.4376C46.7464 28.0824 45.9584 27.9672 45.2232 28.0784C44.5384 28.1272 43.7832 27.5848 43.1456 28.0704C42.3976 28.5104 42.3496 29.464 41.5832 29.8704C41.0256 30.7304 41.3856 31.1744 41.6792 31.4384C42.1672 31.6064 43.2864 31.5072 43.8488 31.0848C43.9048 30.7352 43.7624 30.3168 43.7112 30.0704C43.8568 30.1864 43.9 30.2648 43.8968 30.3144C43.9128 30.4792 44.184 30.6024 44.2128 30.6312C44.5712 30.84 44.1728 31.4816 44.1528 31.636C43.4456 31.572 42.692 31.6784 41.9608 31.7288C42.024 32.0528 41.1824 32.3448 41.2184 32.3632C40.4536 32.2256 40.0984 32.52 39.5888 32.8752C39.5528 32.8896 39.144 33.0032 39.144 33.0032C39.1912 33.0544 39.0072 33.288 39.0832 33.28C40.0512 33.176 40.1432 33.708 40.1096 34.192C39.7008 34.76 37.9624 33.872 38.284 35.08C38.1416 35.6656 37.7936 36.62 38.86 36.524C38.86 36.524 39.4216 36.3944 39.4624 36.3944C39.5024 36.3944 40.752 35.9224 40.752 35.9224L40.7872 35.9192C40.7968 35.844 40.844 35.7432 40.9528 35.5992C41.2424 35.1928 41.7984 34.8272 42.356 34.8288C42.088 35.1168 42.6344 35.7248 42.5128 35.9424L43.0344 35.9824C43.1616 35.8776 43.1704 35.8016 43.2488 35.6984C43.3304 35.6088 43.0496 35.112 43.136 35.0768C43.148 35.072 43.1688 35.0744 43.1984 35.0912C43.5624 35.2568 44.64 35.8672 43.6816 35.9312C43.7008 36.5944 43.7984 36.312 44.364 36.4736C44.6848 36.4576 44.8136 35.6848 45.1544 35.6304C45.2094 35.6224 45.2655 35.6304 45.316 35.6536C45.4488 35.812 45.6048 36.0008 45.78 36.1768C46.0168 36.3456 46.3944 36.3064 46.6832 36.0784C46.8336 35.8664 46.5392 35.424 46.5816 35.4384C46.7056 35.6032 47.02 35.976 47.0504 36.1312C47.528 36.496 48.1416 36.4072 48.5968 36.6312C49.0096 36.516 49.5808 36.6312 49.116 37.0632C48.4064 37.1608 47.6136 37.2784 46.9096 37.044C46.3232 36.7776 45.6184 36.916 45.4264 37.4984C44.88 37.2648 44.2192 37.0504 43.6504 36.7928C41.9544 35.9352 40.2896 36.244 38.72 36.6552L38.86 36.524C38.5 36.9176 37.8752 37.2144 37.7592 37.836C37.2592 38.3472 36.4896 38.5776 36.1608 39.284C35.4432 39.8456 35.9528 40.6264 35.7472 41.3176C35.3992 41.616 35.1536 41.9096 35.6048 42.2736C35.7784 42.9024 36.5864 44.356 36.8096 44.9912C37.4816 45.4504 38.2416 46.1448 39.1576 45.7208C40.0088 45.8168 40.792 45.5552 41.552 45.364C42.0216 45.7136 42.5144 45.884 43.0936 45.956C43.3176 46.5656 42.6584 47.3872 43.552 47.808C44.08 48.4128 44.4208 49.288 44.1752 50.0272C43.6208 50.6248 43.5408 51.4872 44.0688 52.1232C44.5544 52.8528 44.208 53.7664 44.8184 54.4768C45.216 54.9128 44.6744 56.1168 45.6248 56.0096C46.3536 55.6736 47.2672 56.0944 47.9328 55.5848C48.5232 55.1464 49.1968 54.7288 49.4968 54.0864C49.8952 53.5256 50.7624 53.3216 50.5312 52.5184C50.5136 51.5864 52.0488 51.8384 52.2016 50.9376C52.6336 50.0416 51.9096 49.1376 52.1032 48.2344C52.5136 47.4664 53.1912 45.6608 53.9216 45.1144C54.3137 44.7393 54.6237 44.2868 54.8319 43.7857C55.0402 43.2846 55.1421 42.7457 55.1312 42.2032C54.5888 41.616 53.6392 42.7776 53.2312 42.3688L51.8632 41.1568L51.864 41.1552C51.6032 40.952 51.2592 40.5224 51.224 40.3504C51.0905 40.0726 50.9291 39.8092 50.7424 39.564C50.5128 39.2616 49.776 38.38 49.892 38.492C50.22 38.8384 50.5832 39.2424 50.9504 39.6488C51.3176 40.0552 51.632 40.628 52.1504 41.0376C53.3608 42.2024 53.8848 42.0992 55.0608 41.3296C55.5592 40.852 56.312 40.5536 56.4216 39.8344C56.7136 39.2936 56.3504 38.756 55.908 38.5224C55.4152 38.4424 54.916 38.5568 54.3656 38.4424C54.096 38.1224 53.6408 37.8832 53.328 37.6624C53.3144 37.632 53.2688 37.5896 53.2112 37.5064C53.1728 37.4712 53.1776 37.4632 53.192 37.464C53.208 37.4656 53.2328 37.4736 53.2376 37.4672C53.308 37.5184 53.3496 37.5632 53.3704 37.5784L54.1832 38.044C54.6368 38.404 55.2168 38.3264 55.8032 38.3848C56.616 38.4296 57.6776 37.9616 58.2352 38.7504C58.5024 39.3984 59.6624 39.3024 59.6352 40.1536C60.0912 41.0416 60.6656 41.8976 61.0064 42.8208C61.2512 43.2896 61.8928 43.0912 61.8944 43.6312C62.6224 44.2296 62.9888 43.0504 62.4784 42.6288C62.0688 41.8736 61.6944 40.9944 61.9688 40.1648C62.4168 39.5488 62.1824 38.6456 62.7968 38.1424C63.7528 38.2144 63.7104 39.2856 64.2 39.8016C65.2056 39.852 65.2216 40.964 65.4144 41.6392C65.2 42.3304 66.1152 42.9976 66.0192 43.5456C65.552 42.9088 64.7152 43.62 65.3032 44.1128C65.9136 44.8128 66.044 45.7128 66.2936 46.5472C66.4152 47.22 66.7824 47.8368 66.9472 48.488C67.0352 48.9488 67.3936 49.2416 67.7672 49.524C67.828 49.372 67.8936 49.2216 67.9504 49.068C68.0352 48.8344 68.1088 48.596 68.1848 48.36C68.0848 48.2944 67.9584 48.2656 67.7832 48.296C67.2984 47.6192 67.9232 46.72 67.3432 46.0656C67.1544 45.404 67.4472 44.756 67.1832 44.1112C67.1832 43.2536 66.4888 42.6456 66.1576 41.8944C65.9272 41.5616 65.8824 40.3928 66.2984 41.2304C66.5424 41.5168 66.8 42.4112 67.0848 42.2864C67.4272 41.4264 67.7064 40.4664 67.3168 39.58C67.3072 38.9192 66.2368 38.3184 66.3008 37.8832C67.3488 37.6232 65.832 36.5232 66.3456 35.9048C66.5144 35.4184 66.0216 34.5544 66.8016 34.88C66.8567 34.775 66.8837 34.6576 66.88 34.5392C66.715 34.2237 66.5416 33.9126 66.36 33.6064C66.3208 33.5424 66.2784 33.48 66.2392 33.416L66.2376 33.4144C66.1056 33.2752 65.9736 33.1432 65.8672 33.0224C65.2896 32.6544 65.2832 31.9896 64.8424 31.528C64.3576 30.9688 63.8168 30.432 63.1184 30.0832C62.7216 29.8272 62.1104 29.2968 62.228 28.9112C62.42 29.052 62.7 29.2168 62.9216 29.264L62.8528 29.1936C57.4264 23.9088 49.2808 21.0656 41.8592 21.2608C41.4692 21.2463 41.079 21.2407 40.6888 21.244ZM38.2592 21.38C28.312 22.3784 18.2112 28.848 15.6 38.536V38.5376C15.7224 39.032 15.9912 39.6272 16.712 39.8616C17.1624 40.0568 16.9848 40.6832 17.492 40.9616C18.1608 41.5128 17.7192 42.3216 18.2952 42.8992C18.48 43.2992 18.7056 43.5952 19.1888 43.344C20.0008 43.6288 19.2352 44.7176 18.9 45.2064C18.3704 45.8464 18.8736 46.64 18.5784 47.324C18.8032 48.2048 19.5824 48.8664 19.9064 49.7176C20.1376 50.5744 20.984 50.952 21.7232 51.3944C22.3424 51.96 22.3176 52.8008 22.6096 53.5048C22.8512 54.2296 23.0312 54.9736 23.4528 55.636C23.84 56.4104 23.944 57.2792 24.528 57.972C24.9832 58.5848 25.44 59.1928 25.8296 59.8408C26.2112 60.2888 26.7368 60.6592 27.0408 61.1528C27.1261 61.1986 27.212 61.2437 27.2984 61.288L27.3048 61.2912C28.0632 61.5552 29.0392 62.008 29.6648 61.3992C29.9416 60.6224 28.8328 60.9544 28.4808 60.4632C27.7264 60.1056 28.3016 59.1064 27.3392 58.9616C27.5752 58.6552 27.0464 58.344 27.2472 57.9056C27.1112 57.524 26.8432 56.972 27.4656 56.8336C27.8304 56.3688 27.1952 55.776 27.8416 55.452C28.0456 54.7 28.3904 53.948 28.2872 53.1616C28.0688 52.1712 29.6264 52.4704 29.7832 51.6288C30.1272 50.8848 29.8992 50.0816 30.0264 49.3144C30.4056 48.6256 31.3496 47.8152 30.6584 47.0184C29.9248 46.4488 28.9784 46.2488 28.116 45.9832C27.5536 45.588 26.4176 45.7704 26.6032 44.9304C26.448 44.1 25.5952 43.7784 24.8 43.5672C24.0576 43.3512 24.2632 42.5208 23.884 42.1656C22.0072 41.7464 22.0984 41.8728 21.7608 41.524C21.2432 41.3208 20.9608 41.5048 20.5048 41.6984C20.3304 42.0464 19.9232 42.2168 19.4856 42.2424C18.4256 42.4584 19.0456 41.0984 19.264 40.6456C19.4992 40.0776 18.5472 39.7976 18.464 39.7416C18.764 39.0968 19.144 37.9384 20.184 38.4288C20.5392 38.5848 20.4752 38.8824 20.3704 39.096C21.3384 39.2416 21.2696 39.916 21.8688 40.3304C22.2352 39.888 23.672 40.8224 23.3264 39.8704C22.6808 39.3888 21.8144 39.2264 21.2944 38.5664C21.0424 37.8664 22.3104 37.3424 21.808 36.596C21.5888 36.204 21.3944 36.8496 21.5832 36.2984C21.6568 35.448 22.54 35.0272 23.3544 34.8424C24.0072 34.3664 24.3688 33.4824 25.3464 33.4568C26.0632 33.5216 26.1688 32.4088 26.8064 33.0848C27.3752 33.0608 28.2648 33.048 28.6488 32.5768C28.816 32.6096 29.8448 33.3624 30.1488 32.6312C30.4128 32.2176 29.9472 31.6256 30.5688 31.3632C30.7824 30.6112 30.4968 29.7808 31.1512 29.136C31.6128 28.504 32.4728 28.3304 33.1936 28.036C33.5632 27.7784 33.1208 27.4488 33.6184 27.2176C34.06 26.7488 34.2208 25.9352 34.9952 25.8736C35.4624 25.6064 35.2192 25.9832 35.3552 26.1144C35.8616 26.792 34.4792 27.0464 34.228 27.5944C33.5448 28.1384 32.7664 28.8664 32.944 29.7544C33.376 30.8024 34.3808 29.7296 34.896 29.3408C35.964 28.9952 37.0936 28.84 38.1752 28.5376C38.6216 28.3256 38.376 27.8648 38.8888 27.6256C39.344 27.1776 39.4104 26.5 40.0872 26.3344C40.2448 25.4936 39.08 25.3208 38.3856 25.3048C38.2032 24.5416 37.2392 24.6192 36.6032 24.3376C37.1856 24.1056 35.9192 24.1232 36.3216 23.8312C35.9248 23.7912 35.5104 23.248 35.128 23.6144C34.9808 23.4224 33.552 23.6136 34.128 22.9344C35.3896 22.1792 37.112 22.3664 38.2456 21.4032C38.2536 21.3968 38.2528 21.3872 38.2592 21.38ZM43.3792 25.588C43.3102 25.5804 43.2405 25.5929 43.1784 25.624C42.8904 25.792 42.7232 26.5312 43.272 26.1832C43.5712 26.3296 44.2752 26.3512 43.8144 25.9432C43.9584 25.7448 43.6288 25.5992 43.3792 25.588ZM45.44 25.7096C45.3873 25.7151 45.3353 25.7258 45.2848 25.7416C44.7976 26.3912 45.3752 27.2656 46.0368 27.608C46.5336 27.8952 47.3608 27.2128 46.5336 27.0656C45.8 26.9704 46.1336 25.6552 45.44 25.7096ZM42.168 26.0256C42.1117 26.0215 42.0551 26.0234 41.9992 26.0312L41.9056 26.0288C40.9824 26.112 40.9592 27.172 41.9088 27.2424C42.8416 27.408 42.9608 26.0864 42.1696 26.0256H42.168ZM34.3536 26.0656C34.3616 26.0616 34.3744 26.0656 34.388 26.0864C34.3344 26.168 34.3296 26.0792 34.3536 26.0656ZM31.4008 26.9648C31.7208 27.0008 31.7128 27.3096 31.2912 27.1096C31.1208 27.1408 30.9472 27.008 31.2448 26.9672C31.2965 26.96 31.3489 26.9592 31.4008 26.9648ZM29.5464 26.9864C29.6002 26.9789 29.655 26.9852 29.7056 27.0048C29.4808 27.492 29.9008 28.072 29.1456 28.3392C28.7096 28.5656 27.9336 29.5512 27.7776 28.6032C27.7264 27.792 28.4784 27.0656 29.384 27.0016C29.4368 27.0016 29.492 26.9912 29.5464 26.9864ZM30.988 28.6608C30.4152 28.6936 30.98 29.0632 30.988 28.6608V28.6608ZM37.3976 28.9296C37.3495 28.9328 37.3023 28.9447 37.2584 28.9648C37.1216 29.3568 36.0744 29.1224 36.7416 29.5352C37.1304 30.164 38.3032 30.1784 38.8176 29.704C39.0728 29.112 38.3024 28.8432 37.8152 29.0136C37.6832 28.9736 37.5384 28.9192 37.3976 28.9296ZM39.8944 30.8856C39.5384 30.8968 39.236 31.112 39.2584 31.5336C38.84 31.7976 37.936 32.4912 38.5848 32.8496C39.396 32.7616 39.9096 32.5056 40.6384 32.2512L40.7352 31.9136C40.5328 31.6792 40.3896 31.3976 40.5352 31.0856C40.3498 30.9501 40.124 30.8798 39.8944 30.8856ZM28.3848 31.8616C28.4008 31.8712 28.4176 31.8888 28.436 31.8936C28.7088 32.2808 27.5864 32.1208 28.3264 31.8664C28.3496 31.8504 28.3672 31.852 28.3848 31.8616ZM75.052 32.6768C76.6101 36.2224 77.3497 40.0734 77.216 43.944C76.6128 59.9304 61.5088 71.264 46.4368 72.7688C50.9064 75.2616 56.2704 76.7048 61.9992 76.7048C64.4624 76.7048 66.8576 76.4368 69.1432 75.9328C72.5624 78.336 77.1784 81.0384 82.1928 81.6648C82.5089 81.7041 82.8295 81.6449 83.1107 81.4953C83.3919 81.3456 83.6201 81.1128 83.7641 80.8287C83.908 80.5445 83.9608 80.2228 83.9151 79.9075C83.8694 79.5923 83.7275 79.2988 83.5088 79.0672C81.3808 76.8144 79.144 74.6272 78.6824 72.096C85.5192 67.8664 90 61.096 90 53.344C90 44.2888 83.8928 36.5648 75.0504 32.6768M51.1496 33.4312C51.3176 33.7192 52.2968 34.0472 52.0472 34.2456C51.7472 34.08 51.0384 33.5816 51.1496 33.4312ZM47.4784 33.7832C47.784 34.5432 48.7536 33.768 49.2808 34.1552C49.5976 34.2432 49.884 34.6 49.3224 34.4456C48.7144 33.9112 47.3912 35.1496 47.2616 34.288C47.2984 34.1096 47.3984 33.948 47.4784 33.7832ZM52.3296 34.6616C52.3536 34.6589 52.3832 34.6616 52.4184 34.6696C53.064 34.7128 52.8728 35.4688 52.356 35.0136C52.2584 34.9336 52.1608 34.6776 52.3296 34.6616ZM19.3096 35.1576L19.3832 35.1944C19.4784 36.088 20.7456 35.0304 20.728 35.944C20.6432 36.4704 20.184 37.1576 20.8032 37.5976C21.2728 37.9352 20.5824 38.0008 20.3816 37.6816C19.8264 37.4032 19.3856 38.1976 18.7408 37.8456C18.0672 37.6216 17.8992 39.1032 17.352 38.2776C17.2192 37.6968 17.672 37.1432 17.892 36.6056C18.2296 36.0616 18.548 35.4296 19.22 35.164L19.3096 35.1576ZM67.6376 36.1736C67.1432 36.56 67.9 37.4064 67.9496 37.924C68.284 38.368 68.3808 38.7376 68.5848 39.16C68.5632 39.0664 68.5472 38.9696 68.5248 38.8768C68.2972 37.9547 68.0012 37.051 67.6376 36.1736ZM46.7192 36.2848C45.6536 36.5256 46.7864 36.6872 47.2168 36.688C47.4032 36.3536 47.0536 36.3936 46.7192 36.2848ZM20.4072 39.3408C19.9064 39.3488 20.5408 40.1312 21.0072 40.0272C21.3168 39.9544 21.1032 39.824 20.9552 39.5504C20.883 39.4767 20.7941 39.4215 20.696 39.3896C20.6025 39.36 20.5052 39.3431 20.4072 39.3408ZM68.724 39.8264C68.5184 40.3968 68.5792 41.1304 68.84 41.604C68.8841 41.6013 68.9271 41.5896 68.9664 41.5696C68.9568 41.4512 68.9536 41.3344 68.9416 41.2152C68.886 40.7497 68.8135 40.2865 68.724 39.8264ZM55.22 41.2464C55.1824 41.2496 55.136 41.344 55.2464 41.284C55.2411 41.2573 55.232 41.2448 55.2192 41.2464M68.9936 42.0008C68.3056 42.5352 68.8296 43.5 68.2672 44.1128C67.704 44.556 67.66 45.2352 67.7736 45.8544C67.9384 46.3768 67.7544 47.36 68.444 47.468C68.4912 47.2904 68.544 47.1144 68.5856 46.9336C68.9496 45.3576 69.092 43.7088 68.9936 42.0008ZM67.2816 46.02C67.3184 46.016 67.3624 46.044 67.3016 46.1168C67.216 46.0608 67.2448 46.024 67.2816 46.02ZM54.2624 49.9656C54.148 50.1528 53.932 50.572 53.6464 50.3056C54.016 51.1448 52.172 50.9672 52.5296 51.8968C52.344 52.5592 51.5856 53.4296 52.3112 54.0168C53.2072 54.3264 53.5272 53.444 53.8112 52.8888C54.1264 52.3232 54.4432 51.76 54.7832 51.2056C54.7104 50.8184 54.9064 49.996 54.2624 49.9656ZM53.8392 59.5336C52.9784 59.6592 53.4504 60.8344 54.1432 60.2248C54.2328 59.9984 54.1736 59.564 53.8392 59.5336ZM29.552 59.6872C28.5712 59.7088 29.5112 61.104 29.948 60.2136C30.0424 59.6584 29.8288 59.8408 29.552 59.6872ZM48.6272 61.704C47.7344 61.6584 46.3736 62.0736 45.8024 62.0024C45.1752 61.9384 44.7208 61.7264 44.1336 61.9992C43.4304 61.9592 42.7712 61.7096 42.0632 61.7112C41.9629 61.7112 41.8608 61.7165 41.7568 61.7272C40.9528 61.9192 40.1248 61.9088 39.3152 62.0448C38.6968 62.3264 38.8352 63.2632 38.06 63.3624C37.9816 63.9024 37.4472 63.996 37.0304 63.864C36.916 63.976 36.9808 64.1536 37.0256 64.292C39.888 64.7016 42.892 64.7968 45.9616 64.5904C47.904 64.4224 49.8696 64.0112 51.7944 63.392C50.9304 63.4736 50.2448 63.3584 49.8776 62.9464C49.992 62.3832 49.036 62.4688 49.3176 61.9384C49.1712 61.7856 48.9256 61.72 48.6272 61.704ZM32.3256 62.3576C32.0944 62.6464 32.0752 62.9456 32.1536 63.2352L32.5176 63.3472C32.7456 63.4112 32.9784 63.4688 33.2088 63.5296C33.0136 63.404 32.8824 63.236 32.9104 62.9592C32.8224 62.2896 32.636 62.4808 32.3264 62.3576M35.18 63.9072C35.132 63.9136 35.0752 63.9368 35.0216 63.9528L35.0504 63.9592C35.248 63.9992 35.4504 64.0312 35.6504 64.068C35.4768 63.9368 35.336 63.8848 35.18 63.9072Z" fill="white"/>
</svg>
