<svg width="94" height="94" viewBox="0 0 94 94" fill="none" xmlns="http://www.w3.org/2000/svg">
<rect width="94" height="94" rx="40" fill="#036E64"/>
<path d="M51.3858 13.2276L46.5567 33.0826C44.1924 33.1631 41.8875 33.8442 39.8592 35.0618L25.0708 20.9543C33.605 14.8585 41.9967 12.0401 51.3858 13.2276ZM58.59 14.9693C67.4312 18.4618 74.5491 25.2841 78.4133 33.9693L58.8275 39.6693C57.6081 37.6296 55.8566 35.9603 53.7608 34.8401L58.59 14.9693ZM19.9567 26.3218L34.745 40.4293C33.6198 42.5143 33.0474 44.8528 33.0825 47.2218L13.4808 52.9693C12.6564 48.3213 12.8063 43.5527 13.921 38.9656C15.0358 34.3786 17.091 30.073 19.9567 26.3218ZM80.5192 41.031C81.3426 45.679 81.1923 50.4474 80.0776 55.0343C78.9629 59.6212 76.9081 63.9267 74.0433 67.6785L59.255 53.571C60.3776 51.4849 60.9498 49.1471 60.9175 46.7785L80.5192 41.031ZM35.1725 54.331C36.3963 56.3671 38.1466 58.0355 40.2392 59.1601L35.41 79.0151C30.9982 77.3654 26.9668 74.8381 23.5595 71.586C20.1523 68.3339 17.44 64.4245 15.5867 60.0943L35.1725 54.331ZM54.1725 58.9385L68.9608 73.046C65.3539 76.0885 61.1522 78.3457 56.624 79.6733C52.0958 81.001 47.3405 81.37 42.6617 80.7568L47.4117 60.9176C49.7868 60.8425 52.1033 60.1612 54.1408 58.9385H54.1725Z" stroke="white" stroke-width="0.5" stroke-linecap="round" stroke-linejoin="round"/>
</svg>
