<svg width="100" height="97" viewBox="0 0 100 97" fill="none" xmlns="http://www.w3.org/2000/svg">
<rect width="100" height="97" rx="40" fill="#036E64"/>
<path d="M68.7257 68.0023C67.9032 68.8248 66.9266 69.4773 65.8519 69.9225C64.7772 70.3677 63.6253 70.5968 62.462 70.5968C60.1126 70.5968 57.8595 69.6635 56.1983 68.0023M68.7257 68.0023C69.5483 67.1797 70.2008 66.2032 70.646 65.1284C71.0911 64.0537 71.3203 62.9018 71.3203 61.7385M68.7257 68.0023L73.4205 72.697M71.3203 61.7385C71.3203 60.5752 71.0911 59.4234 70.646 58.3486C70.2008 57.2739 69.5483 56.2974 68.7257 55.4748M71.3203 61.7385H77.962M68.7257 55.4748C67.9032 54.6522 66.9266 53.9997 65.8519 53.5546C64.7772 53.1094 63.6253 52.8803 62.462 52.8803M68.7257 55.4748L73.4205 50.7774M62.462 52.8803C60.1126 52.8803 57.8595 53.8136 56.1983 55.4748M62.462 52.8803V46.2385M56.1983 55.4748C54.537 57.136 53.6038 59.3892 53.6038 61.7385M56.1983 55.4748L51.5009 50.7774M53.6038 61.7385C53.6038 64.0879 54.537 66.341 56.1983 68.0023M53.6038 61.7385H46.962M56.1983 68.0023L51.5009 72.697M60.9843 46.2385H63.9371M72.3768 49.7338L74.4642 51.8211M77.962 60.2609V63.2136M74.4642 71.6534L72.3768 73.7407M63.9371 77.2385H60.9843M62.462 77.2385V70.5942M52.5446 73.7407L50.4573 71.6534M46.962 63.2136V60.2609M50.4573 51.8211L52.5446 49.7338M75.9548 42.844C76.6126 42.1896 77.2387 41.5334 77.8328 40.8755C78.5414 40.0855 78.9333 39.0616 78.9333 38.0003C78.9333 36.939 78.5414 35.9151 77.8328 35.125C71.0878 27.6773 60.3669 20.3871 49.9974 20.5705C39.6305 20.3897 28.9071 27.6773 22.1672 35.1276C21.4586 35.9177 21.0667 36.9416 21.0667 38.0029C21.0667 39.0641 21.4586 40.088 22.1672 40.8781C26.7053 45.9458 32.2325 50.0312 38.4086 52.8829" stroke="white" stroke-width="1.5" stroke-linecap="round" stroke-linejoin="round"/>
<path d="M42.9113 44.8048C41.7999 43.6122 41.0073 42.1585 40.607 40.5782C40.2066 38.9979 40.2114 37.3421 40.6209 35.7642C41.0304 34.1863 41.8314 32.7372 42.9497 31.551C44.068 30.3649 45.4676 29.48 47.0187 28.9784C48.5698 28.4768 50.2224 28.3746 51.8235 28.6814C53.4246 28.9881 54.9224 29.6938 56.1783 30.7332C57.4342 31.7726 58.4076 33.112 59.0084 34.6275C59.6091 36.1429 59.8178 37.7855 59.6152 39.4031" stroke="white" stroke-width="1.5" stroke-linecap="round" stroke-linejoin="round"/>
</svg>
