<svg width="100" height="100" viewBox="0 0 100 100" fill="none" xmlns="http://www.w3.org/2000/svg">
<rect width="100" height="100" rx="40" fill="#036E64"/>
<path d="M51.5 8.08337C29.1779 8.08337 11.0833 26.1779 11.0833 48.5C11.0833 70.8222 29.1779 88.9167 51.5 88.9167C73.8221 88.9167 91.9166 70.8222 91.9166 48.5C91.9166 26.1779 73.8221 8.08337 51.5 8.08337ZM51.5 82.8542C46.9883 82.8539 42.5208 81.965 38.3526 80.2382C34.1844 78.5114 30.3972 75.9805 27.2071 72.7901C24.017 69.5996 21.4866 65.8121 19.7602 61.6437C18.0339 57.4753 17.1455 53.0077 17.1458 48.496C17.1461 43.9843 18.035 39.5168 19.7618 35.3486C21.4886 31.1804 24.0195 27.3932 27.2099 24.2031C30.4004 21.013 34.1879 18.4826 38.3563 16.7563C42.5247 15.03 46.9923 14.1416 51.504 14.1418C60.6158 14.1424 69.3543 17.7625 75.7969 24.206C82.2396 30.6494 85.8587 39.3882 85.8582 48.5C85.8576 57.6119 82.2375 66.3503 75.7941 72.7929C69.3507 79.2356 60.6118 82.8547 51.5 82.8542ZM51.5 50.5209C39.2214 50.5209 29.2708 57.5049 29.2708 64.6667C29.2708 71.8285 39.2214 78.8125 51.5 78.8125C63.7786 78.8125 73.7291 71.8285 73.7291 64.6667C73.7291 57.5049 63.7786 50.5209 51.5 50.5209ZM51.5 48.5C54.7157 48.5 57.7998 47.2226 60.0737 44.9487C62.3475 42.6748 63.625 39.5908 63.625 36.375C63.625 33.1593 62.3475 30.0752 60.0737 27.8014C57.7998 25.5275 54.7157 24.25 51.5 24.25C48.2842 24.25 45.2002 25.5275 42.9263 27.8014C40.6524 30.0752 39.375 33.1593 39.375 36.375C39.375 39.5908 40.6524 42.6748 42.9263 44.9487C45.2002 47.2226 48.2842 48.5 51.5 48.5Z" fill="white"/>
</svg>
