<svg width="100" height="97" viewBox="0 0 100 97" fill="none" xmlns="http://www.w3.org/2000/svg">
<rect width="100" height="97" rx="40" fill="#036E64"/>
<path d="M50 56.1425C50.938 56.1425 51.8667 55.9578 52.7333 55.5988C53.5999 55.2399 54.3873 54.7138 55.0505 54.0505M50 56.1425C48.1057 56.1425 46.289 55.39 44.9495 54.0505M50 56.1425V61.5M55.0505 54.0505C55.7138 53.3873 56.2399 52.5999 56.5988 51.7333C56.9578 50.8667 57.1425 49.938 57.1425 49M55.0505 54.0505L58.84 57.84M57.1425 49C57.1425 48.062 56.9578 47.1333 56.5988 46.2667C56.2399 45.4001 55.7138 44.6127 55.0505 43.9495M57.1425 49H62.5M55.0505 43.9495C54.3873 43.2862 53.5999 42.7601 52.7333 42.4012C51.8667 42.0422 50.938 41.8575 50 41.8575M55.0505 43.9495L58.84 40.16M50 41.8575C48.1057 41.8575 46.289 42.61 44.9495 43.9495M50 41.8575V36.5M44.9495 43.9495C43.61 45.289 42.8575 47.1057 42.8575 49M44.9495 43.9495L41.16 40.16M42.8575 49C42.8575 50.8943 43.61 52.711 44.9495 54.0505M42.8575 49H37.5M44.9495 54.0505L41.16 57.84M48.81 36.5H51.19M57.9975 39.32L59.68 41.0025M62.5 47.81V50.19M59.68 56.9975L57.9975 58.68M51.19 61.5H48.81M42.0025 58.68L40.32 56.9975M37.5 50.19V47.81M40.32 41.0025L42.0025 39.32M22.5 21.5L35 34M22.5 21.5V31.5M22.5 21.5H32.5M77.5 21.5L65 34M77.5 21.5H67.5M77.5 21.5V31.5M77.5 76.5L65 64M77.5 76.5V66.5M77.5 76.5H67.5M22.5 76.5L35 64M22.5 76.5H32.5M22.5 76.5V66.5" stroke="white" stroke-width="1.5" stroke-linecap="round" stroke-linejoin="round"/>
</svg>
