<svg width="88" height="88" viewBox="0 0 88 88" fill="none" xmlns="http://www.w3.org/2000/svg">
<path d="M44 33C51.0876 33 56.8333 27.2544 56.8333 20.1667C56.8333 13.0791 51.0876 7.33337 44 7.33337C36.9123 7.33337 31.1666 13.0791 31.1666 20.1667C31.1666 27.2544 36.9123 33 44 33Z" fill="#2F88FF" stroke="black" stroke-width="2" stroke-linecap="round" stroke-linejoin="round"/>
<path d="M7.33331 75.1667C7.33331 58.9663 22.108 45.8334 40.3333 45.8334" stroke="black" stroke-width="2" stroke-linecap="round" stroke-linejoin="round"/>
<path d="M62.3333 78.8334C71.446 78.8334 78.8333 71.4461 78.8333 62.3334C78.8333 53.2207 71.446 45.8334 62.3333 45.8334C53.2206 45.8334 45.8333 53.2207 45.8333 62.3334C45.8333 71.4461 53.2206 78.8334 62.3333 78.8334Z" fill="#2F88FF" stroke="black" stroke-width="2"/>
<path d="M60.5 56.8334V64.1667H67.8333" stroke="white" stroke-width="2" stroke-linecap="round" stroke-linejoin="round"/>
</svg>
