<svg width="100" height="100" viewBox="0 0 100 100" fill="none" xmlns="http://www.w3.org/2000/svg">
<g clip-path="url(#clip0_1_254)">
<rect width="100" height="100" rx="50" fill="#036E64"/>
<path fill-rule="evenodd" clip-rule="evenodd" d="M70.1924 41.0586C70.1924 48.3411 68.3828 57.8393 65.599 56.3979C64.4606 60.1154 62.0708 63.3243 58.8351 65.4798C55.5995 67.6352 51.7176 68.6044 47.8486 68.2227C43.9795 67.8411 40.3618 66.1321 37.6097 63.3859C34.8576 60.6398 33.1408 57.0257 32.7508 53.1575C29.9881 48.3242 26.3647 38.6388 35.6798 31.089C35.8482 31.0343 35.9492 30.5798 36.1007 29.9107C36.6772 27.3794 37.9544 21.7528 46.0113 22.8281C52.2249 23.655 70.1924 26.8617 70.1924 41.0586ZM62.1839 45.652C62.1839 45.652 61.2328 48.4337 62.125 51.5331C62.1134 54.8379 60.8065 58.0063 58.4847 60.3582C56.163 62.7101 53.0117 64.0579 49.7074 64.1121C46.403 64.1664 43.2091 62.9228 40.8115 60.6485C38.4138 58.3741 37.0035 55.2502 36.8834 51.9476C37.1885 50.7903 37.1885 48.8314 37.1864 46.6535C37.1843 42.7251 37.1801 38.0896 38.9792 36.2C51.581 44.5936 62.1839 45.652 62.1839 45.652Z" fill="white"/>
<path d="M26.3542 87.75C26.3542 85.4733 27.5599 83.4785 29.3694 82.3675C29.3007 82.1055 29.2361 81.8425 29.1759 81.5785C28.8578 80.1407 28.6085 78.6886 28.4289 77.227C28.2494 75.8264 28.1406 74.4176 28.1027 73.0061C19.221 76.4927 11.625 82.5695 11.625 88.9493V100.375H87.375V88.9493C87.375 82.8388 80.4102 77.0082 72.0188 73.4627V73.5216C72.0567 74.8051 71.9851 76.2781 71.8462 77.6942C71.72 79.0072 71.5327 80.316 71.3076 81.4375H72.6458C73.0365 81.4377 73.4194 81.5466 73.7516 81.7522C74.0839 81.9577 74.3523 82.2516 74.527 82.6011L76.6311 86.8094C76.7784 87.1019 76.8542 87.4238 76.8542 87.75V91.9583C76.8542 92.5164 76.6325 93.0516 76.2379 93.4462C75.8433 93.8408 75.3081 94.0625 74.75 94.0625H70.5417V89.8541H72.6458V88.2466L71.3455 85.6458H65.5295L64.2292 88.2466V89.8541H66.3333V94.0625H62.125C61.5669 94.0625 61.0317 93.8408 60.6371 93.4462C60.2425 93.0516 60.0208 92.5164 60.0208 91.9583V87.75C60.0208 87.4238 60.0966 87.1019 60.2439 86.8094L62.348 82.6011C62.5227 82.2516 62.7911 81.9577 63.1234 81.7522C63.4556 81.5466 63.8385 81.4377 64.2292 81.4375H66.9961C67.0424 81.2565 67.0887 81.0559 67.135 80.8357C67.3454 79.8446 67.5327 78.5884 67.659 77.2902C67.7852 75.9898 67.8441 74.6999 67.8126 73.6394C67.8056 73.2 67.7712 72.7615 67.7095 72.3264C67.6632 72.0276 67.6169 71.8909 67.6085 71.8614C67.6057 71.8544 67.6057 71.853 67.6085 71.8572L67.6148 71.8551C66.4981 71.5088 65.3688 71.2048 64.2292 70.944C63.1708 70.702 62.0766 72.1581 61.599 73.0692H36.875L36.694 72.7157C36.248 71.8277 35.6988 70.7315 34.7708 70.944C33.96 71.1278 33.1499 71.3361 32.3405 71.5689C32.3154 71.938 32.3041 72.3079 32.3069 72.6778C32.3153 73.8414 32.4268 75.2659 32.6056 76.7052C32.7845 78.1402 33.0265 79.5374 33.279 80.64C33.3519 80.9584 33.4221 81.2418 33.4894 81.4901C34.6924 81.6482 35.8243 82.1497 36.7496 82.9345C37.675 83.7193 38.3546 84.7541 38.707 85.9151C39.0594 87.0761 39.0698 88.3141 38.7369 89.4809C38.4039 90.6476 37.7418 91.6937 36.8297 92.4939C35.9176 93.2941 34.7943 93.8145 33.5941 93.9927C32.394 94.171 31.1679 93.9996 30.0626 93.4991C28.9573 92.9985 28.0197 92.1901 27.362 91.1705C26.7043 90.1509 26.3544 88.9633 26.3542 87.75Z" fill="white"/>
<path d="M34.7708 87.75C34.7708 88.9578 33.7987 89.8857 32.6667 89.8857C31.5346 89.8857 30.5625 88.9599 30.5625 87.75C30.5625 86.5422 31.5346 85.6143 32.6667 85.6143C33.7987 85.6143 34.7708 86.5401 34.7708 87.75Z" fill="white"/>
</g>
<defs>
<clipPath id="clip0_1_254">
<rect width="100" height="100" rx="50" fill="white"/>
</clipPath>
</defs>
</svg>
