<svg width="73" height="67" viewBox="0 0 73 67" fill="none" xmlns="http://www.w3.org/2000/svg">
<path d="M50.2396 11.375C49.4854 11.375 48.7621 11.6746 48.2287 12.2079C47.6954 12.7412 47.3958 13.4645 47.3958 14.2187C47.3958 14.973 47.6954 15.6963 48.2287 16.2296C48.7621 16.7629 49.4854 17.0625 50.2396 17.0625C52.9468 17.0625 54.9792 19.0948 54.9792 21.8021C54.9792 22.5563 55.2788 23.2796 55.8121 23.8129C56.3454 24.3462 57.0687 24.6458 57.8229 24.6458C58.5771 24.6458 59.3004 24.3462 59.8338 23.8129C60.3671 23.2796 60.6667 22.5563 60.6667 21.8021C60.6819 20.4285 60.4226 19.0658 59.904 17.7939C59.3854 16.5219 58.6179 15.3664 57.6466 14.3951C56.6753 13.4238 55.5198 12.6563 54.2478 12.1377C52.9758 11.6191 51.6131 11.3598 50.2396 11.375ZM19.9062 0C15.7127 0 10.8252 2.093 7.03354 5.25904C3.21912 8.44404 0 13.1495 0 18.7612V18.8294C0 21.5405 0 27.5654 4.60308 33.0292C5.08842 33.6055 5.38417 33.9733 5.5965 34.3411C6.79846 36.4341 7.57196 38.7584 7.58333 40.7756C7.62125 47.9797 8.92179 54.145 11.2233 58.623C13.5021 63.0516 17.1004 66.3542 21.8021 66.3542C23.1936 66.3542 24.5245 66.0281 25.6734 65.247C26.8109 64.4735 27.5465 63.4118 28.0242 62.3312C28.919 60.3216 29.1352 57.7395 29.2755 55.4076C29.3134 54.8212 29.3475 54.2297 29.3778 53.6331C29.6243 49.0755 29.8783 44.3246 31.941 40.1158C32.6349 38.694 33.8823 37.9167 35.0729 37.9167H36.9688C38.1328 37.9167 39.3461 38.6598 40.0514 40.0135C41.5415 43.9416 41.9927 48.3058 42.4287 52.5108C42.5299 53.5345 42.6398 54.5431 42.7586 55.5365C43.043 57.9253 43.4335 60.4278 44.3435 62.3691C44.8175 63.3853 45.5038 64.409 46.5427 65.1749C47.6195 65.9712 48.8822 66.3542 50.2396 66.3542C54.4483 66.3542 58.0163 62.9341 60.352 58.695C62.8014 54.2474 64.4166 48.0783 64.4583 40.7756C64.4697 38.5271 65.4328 35.9109 66.8357 33.6927C72.0303 27.5047 72.0417 21.7111 72.0417 18.7612C72.0417 13.1495 68.8225 8.44404 65.0081 5.25904C61.2165 2.093 56.329 0 52.1354 0C48.8405 0 46.2545 0.52325 44.1464 1.40292C42.3714 2.15621 40.7564 3.24104 39.3878 4.59929C38.8873 5.09221 38.4399 5.57754 38.0721 5.97946L37.9584 6.10458C37.5413 6.55958 37.2493 6.8705 36.9725 7.11696C36.5024 7.53404 36.29 7.58333 36.0208 7.58333C35.7516 7.58333 35.5393 7.53404 35.0729 7.11696C34.7275 6.79509 34.3972 6.45726 34.0833 6.10458L33.9695 5.97946C33.598 5.57754 33.1543 5.08842 32.6538 4.59929C31.291 3.23501 29.6745 2.15045 27.8953 1.40671C25.7871 0.52325 23.205 0 19.9062 0ZM5.6875 18.7612C5.6875 15.4093 7.64021 12.1599 10.6773 9.62325C13.7372 7.07146 17.381 5.6875 19.9062 5.6875C22.5907 5.6875 24.4107 6.11217 25.7037 6.65058C26.9815 7.18521 27.8839 7.89425 28.6802 8.67154C29.0593 9.04313 29.4006 9.41471 29.7797 9.83179L29.8935 9.94933C30.2916 10.3854 30.7656 10.901 31.2926 11.3674C32.4188 12.3722 33.9165 13.2708 36.0208 13.2708C38.1252 13.2708 39.6229 12.3722 40.749 11.3674C41.2723 10.901 41.75 10.3854 42.152 9.94933L42.2581 9.83179C42.6373 9.41471 42.9823 9.04313 43.3615 8.67154C44.2093 7.80652 45.2212 7.11944 46.338 6.65058C47.6309 6.11217 49.4509 5.6875 52.1354 5.6875C54.6607 5.6875 58.3045 7.07146 61.3643 9.62325C64.3977 12.1599 66.3542 15.4093 66.3542 18.7612V18.7763C66.3542 21.3547 66.3542 25.4952 62.3767 30.1551C62.2972 30.2525 62.2225 30.3537 62.153 30.4585C60.333 33.2757 58.7898 37.0105 58.7708 40.7453C58.7329 47.2669 57.2845 52.4767 55.3697 55.9498C53.3488 59.6278 51.2633 60.6667 50.2396 60.6667C50.0007 60.6667 49.94 60.6174 49.9287 60.606C49.7356 60.4276 49.5864 60.207 49.4926 59.9614C49.0225 58.949 48.6964 57.2997 48.4044 54.8654C48.3084 54.0515 48.2148 53.1769 48.1238 52.2416C47.6878 47.9684 47.1418 42.588 45.3104 37.8408L45.2118 37.6133C43.7369 34.6065 40.7073 32.2292 36.9688 32.2292H35.0729C31.3343 32.2292 28.3048 34.6065 26.8298 37.6133C24.2174 42.9482 23.9178 48.939 23.6903 53.3905L23.6031 55.0664C23.4515 57.5461 23.2391 59.1007 22.8258 60.0221C22.6552 60.4126 22.5187 60.515 22.4808 60.5415C22.4542 60.5605 22.295 60.6667 21.8021 60.6667C20.13 60.6667 18.0787 59.5102 16.2814 56.0181C14.5107 52.579 13.3087 47.3693 13.2708 40.7453C13.2519 37.4389 12.0423 34.1478 10.5295 31.5088C10.0765 30.7643 9.56015 30.0602 8.98625 29.4044L8.94833 29.3665C5.72542 25.5331 5.6875 21.3281 5.6875 18.7612Z" fill="white"/>
</svg>
